<?xml version="1.0" encoding="UTF-8" standalone="no"?>
<svg xmlns="http://www.w3.org/2000/svg" xmlns:xlink="http://www.w3.org/1999/xlink" id="Layer_1" viewBox="0 0 3424.7 3432.3" width="3424.7" height="3432.3"><style>.st0{fill:#e0e0e0}.st1{clip-path:url(#SVGID_2_)}.st2{clip-path:url(#SVGID_4_)}.st3{clip-path:url(#SVGID_6_);fill:#204bff}.st4{clip-path:url(#SVGID_8_)}.st5{clip-path:url(#SVGID_12_)}.st6{clip-path:url(#SVGID_13_)}.st7{clip-path:url(#SVGID_14_)}.st8{clip-path:url(#SVGID_16_)}.st9{clip-path:url(#SVGID_19_)}.st10{clip-path:url(#SVGID_20_)}.st11{clip-path:url(#SVGID_22_)}.st12{clip-path:url(#SVGID_24_)}.st13{clip-path:url(#SVGID_28_)}.st14{clip-path:url(#SVGID_29_)}.st15{clip-path:url(#SVGID_30_)}.st16{clip-path:url(#SVGID_32_)}.st17{clip-path:url(#SVGID_35_)}.st18{clip-path:url(#SVGID_36_)}.st19{clip-path:url(#SVGID_41_)}.st20{clip-path:url(#SVGID_42_)}.st21{clip-path:url(#SVGID_43_)}</style><path class="st0" d="M1716.4 34c548 0 612.8 2.2 829.3 11.9 200.1 9.1 308.6 42.6 381.1 70.6 95.8 37.1 164.1 81.7 236 153.5 71.8 71.8 116.2 140.2 153.5 236 28.2 72.3 61.5 181 70.6 381.1 9.9 216.5 11.9 281.3 11.9 829.3 0 547.8-2 612.8-11.9 829.3-9.1 200.1-42.6 308.8-70.6 381.1-37.3 95.8-81.7 164.1-153.5 235.9-71.8 71.8-140.2 116.2-236 153.5-72.3 28.2-181 61.5-381.1 70.6-216.3 9.9-281.3 11.9-829.3 11.9-547.8 0-612.8-1.9-829.1-11.9-200.1-9.1-308.8-42.4-381.1-70.6-95.8-37.3-164.1-81.7-236-153.5-71.8-71.8-116.4-140.1-153.5-235.9-28.2-72.3-61.5-181-70.6-381.1-10-216.3-12-281.2-12-829.2s2.2-612.8 11.9-829.3c9.1-200.1 42.6-308.6 70.6-381.1C153.9 410.3 198.4 342 270.1 270c71.8-71.8 140.1-116.4 236-153.5 72.3-28.2 181-61.5 381.1-70.6C1103.6 36 1168.6 34 1716.4 34m0-25c-550.5 0-615.2 2.1-830.3 11.9-204.4 9.3-315.3 43.5-389 72.3-99 38.3-169.9 84.4-244.6 159.1C178 327.1 131.9 397.9 93.3 497c-28.8 74.6-63 186.1-72.3 389-9.8 219.7-11.9 285.2-11.9 830.4 0 551 2.1 615.7 12 830.4 9.3 204.3 43.5 315.2 72.3 389 38.3 99 84.4 169.9 159.1 244.5 74.5 74.4 145.3 120.5 244.6 159.1 73.7 28.8 184.6 63 389 72.3 212.9 9.8 277.2 11.9 830.2 11.9 550.7 0 615.4-2.1 830.4-11.9 204.4-9.3 315.3-43.5 389-72.3 99.4-38.7 170.3-84.8 244.6-159.1 74.3-74.3 120.4-145.2 159.1-244.5 28.8-74.4 63-185.8 72.3-389 9.8-215.2 11.9-280 11.9-830.4s-2.1-615.2-11.9-830.4c-9.3-204.4-43.5-315.3-72.3-389-38.7-99.4-84.8-170.3-159.1-244.6-74.8-74.7-145.7-120.8-244.6-159.1-74.6-28.8-186.2-63-389-72.3-219.5-10-285-12-830.3-12z" style="fill: #e0e0e0;"/><defs><path id="SVGID_1_" d="M1716.3 2971.2c-169.4 0-333.7-33.2-488.5-98.7-74.4-31.5-146.1-70.4-213.2-115.7-66.4-44.9-128.9-96.4-185.6-153.2-56.8-56.8-108.3-119.2-153.2-185.6-45.3-67.1-84.3-138.8-115.7-213.2-65.5-154.8-98.7-319.1-98.7-488.5s33.2-333.7 98.7-488.5c31.5-74.4 70.4-146.1 115.7-213.2C720.7 948.2 772.2 885.7 829 829c56.8-56.8 119.2-108.3 185.6-153.2 67.1-45.3 138.8-84.3 213.2-115.7 154.8-65.5 319.1-98.7 488.5-98.7s333.7 33.2 488.5 98.7c74.4 31.5 146.1 70.4 213.2 115.7 66.4 44.9 128.9 96.4 185.6 153.2 56.8 56.8 108.3 119.2 153.2 185.6 45.3 67.1 84.3 138.8 115.7 213.2 65.5 154.8 98.7 319.1 98.7 488.5s-33.2 333.7-98.7 488.5c-31.5 74.4-70.4 146.1-115.7 213.2-44.9 66.4-96.4 128.9-153.2 185.6s-119.2 108.3-185.6 153.2c-67.1 45.3-138.8 84.3-213.2 115.7-154.8 65.5-319.2 98.7-488.5 98.7zm0-2279.8c-138.4 0-272.6 27.1-398.9 80.5-122 51.6-231.6 125.5-325.8 219.7-94.2 94.2-168.1 203.8-219.7 325.8-53.4 126.3-80.5 260.5-80.5 398.9s27.1 272.6 80.5 398.9c51.6 122 125.5 231.6 219.7 325.8 94.2 94.2 203.8 168.1 325.8 219.7 126.3 53.4 260.5 80.5 398.9 80.5s272.6-27.1 398.9-80.5c122-51.6 231.6-125.5 325.8-219.7s168.1-203.8 219.7-325.8c53.4-126.3 80.5-260.5 80.5-398.9s-27.1-272.6-80.5-398.9c-51.6-122-125.5-231.6-219.7-325.8-94.2-94.2-203.8-168.1-325.8-219.7-126.3-53.4-260.5-80.5-398.9-80.5z"/></defs><clipPath id="SVGID_2_"><use xlink:href="#SVGID_1_" overflow="visible"/></clipPath><g class="st1" style="clip-path: url(#SVGID_2_);"><defs><path id="SVGID_3_" d="M-5486.5-5486.5H8926.3V8919.3H-5486.5z"/></defs><clipPath id="SVGID_4_"><use xlink:href="#SVGID_3_" overflow="visible"/></clipPath><g class="st2" style="clip-path: url(#SVGID_4_);"><defs><path id="SVGID_5_" d="M-5486.5-5486.5H8926.3V8919.3H-5486.5z"/></defs><clipPath id="SVGID_6_"><use xlink:href="#SVGID_5_" overflow="visible"/></clipPath><path class="st3" d="M-5486.5-5486.5H8919.3V8919.3H-5486.5z" style="clip-path: url(#SVGID_6_); fill: #204bff;"/><g><defs><path id="SVGID_7_" d="M-5486.5-5486.5H8926.3V8919.3H-5486.5z"/></defs><clipPath id="SVGID_8_"><use xlink:href="#SVGID_7_" overflow="visible"/></clipPath><g class="st4" style="clip-path: url(#SVGID_8_);"><defs><path id="SVGID_9_" d="M-3313-3123.1H8926.3V7653.1H-3313z"/></defs><defs><path id="SVGID_10_" d="M-3313-3123.1H8926.3V7653.1H-3313z"/></defs><defs><path id="SVGID_11_" d="M-5486.5-5486.5H8926.3V8919.3H-5486.5z"/></defs><clipPath id="SVGID_12_"><use xlink:href="#SVGID_9_" overflow="visible"/></clipPath><clipPath id="SVGID_13_" class="st5" style="clip-path: url(#SVGID_12_);"><use xlink:href="#SVGID_10_" overflow="visible"/></clipPath><clipPath id="SVGID_14_" class="st6" style="clip-path: url(#SVGID_13_);"><use xlink:href="#SVGID_11_" overflow="visible"/></clipPath><g class="st7" style="clip-path: url(#SVGID_14_);"><defs><path id="SVGID_15_" d="M-3313-3123H8926.3V7653.2H-3313z"/></defs><clipPath id="SVGID_16_"><use xlink:href="#SVGID_15_" overflow="visible"/></clipPath><g><defs><path id="SVGID_17_" d="M-3313-3123.1H8926.3V7653.1H-3313z"/></defs><defs><path id="SVGID_18_" d="M-5486.5-5486.5H8926.3V8919.3H-5486.5z"/></defs><clipPath id="SVGID_19_"><use xlink:href="#SVGID_17_" overflow="visible"/></clipPath><clipPath id="SVGID_20_" class="st9" style="clip-path: url(#SVGID_19_);"><use xlink:href="#SVGID_18_" overflow="visible"/></clipPath><g class="st10" style="clip-path: url(#SVGID_20_);"><defs><path id="SVGID_21_" d="M-4551-2532.2H7238.1V8834.9H-4551z"/></defs><clipPath id="SVGID_22_"><use xlink:href="#SVGID_21_" overflow="visible"/></clipPath><g><defs><path id="SVGID_23_" d="M-5486.5-5486.5H8926.3V8919.3H-5486.5z"/></defs><clipPath id="SVGID_24_"><use xlink:href="#SVGID_23_" overflow="visible"/></clipPath><g class="st12" style="clip-path: url(#SVGID_24_);"><defs><path id="SVGID_25_" d="M-3116-365.7h8047v8047h-8047z"/></defs><defs><path id="SVGID_26_" d="M-3116-365.7h8047v8047h-8047z"/></defs><defs><path id="SVGID_27_" d="M-5486.5-5486.5H8926.3V8919.3H-5486.5z"/></defs><clipPath id="SVGID_28_"><use xlink:href="#SVGID_25_" overflow="visible"/></clipPath><clipPath id="SVGID_29_" class="st13" style="clip-path: url(#SVGID_28_);"><use xlink:href="#SVGID_26_" overflow="visible"/></clipPath><clipPath id="SVGID_30_" class="st14" style="clip-path: url(#SVGID_29_);"><use xlink:href="#SVGID_27_" overflow="visible"/></clipPath><g class="st15" style="clip-path: url(#SVGID_30_);"><defs><path id="SVGID_31_" d="M-3116-365.7h8047v8047h-8047z"/></defs><clipPath id="SVGID_32_"><use xlink:href="#SVGID_31_" overflow="visible"/></clipPath><g><defs><path id="SVGID_33_" d="M-3116-365.7h8047v8047h-8047z"/></defs><defs><path id="SVGID_34_" d="M-5486.5-5486.5H8926.3V8919.3H-5486.5z"/></defs><clipPath id="SVGID_35_"><use xlink:href="#SVGID_33_" overflow="visible"/></clipPath><clipPath id="SVGID_36_" class="st17" style="clip-path: url(#SVGID_35_);"><use xlink:href="#SVGID_34_" overflow="visible"/></clipPath><g class="st18" style="clip-path: url(#SVGID_36_);"><defs><path id="SVGID_37_" d="M-1990.6 956.7h6499.5v6499.5h-6499.5z"/></defs><defs><path id="SVGID_38_" d="M-5486.5-5486.5H8926.3V8919.3H-5486.5z"/></defs><defs><path id="SVGID_39_" d="M-1990.6 956.7h6499.5v6499.5h-6499.5z"/></defs><defs><path id="SVGID_40_" d="M-5486.5-5486.5H8926.3V8919.3H-5486.5z"/></defs><clipPath id="SVGID_41_"><use xlink:href="#SVGID_37_" overflow="visible"/></clipPath><clipPath id="SVGID_42_" class="st19" style="clip-path: url(#SVGID_41_);"><use xlink:href="#SVGID_38_" overflow="visible"/></clipPath><clipPath id="SVGID_43_" class="st20" style="clip-path: url(#SVGID_42_);"><use xlink:href="#SVGID_39_" overflow="visible"/></clipPath><clipPath id="SVGID_44_" class="st21" style="clip-path: url(#SVGID_43_);"><use xlink:href="#SVGID_40_" overflow="visible"/></clipPath></g></g></g></g></g></g></g></g></g></g></g></g>
	<metadata>
		<rdf:RDF xmlns:rdf="http://www.w3.org/1999/02/22-rdf-syntax-ns#" xmlns:rdfs="http://www.w3.org/2000/01/rdf-schema#" xmlns:dc="http://purl.org/dc/elements/1.1/">
			<rdf:Description about="https://iconscout.com/legal#licenses" dc:title="hyperlapse-company-brand-logo" dc:description="hyperlapse-company-brand-logo" dc:publisher="Iconscout" dc:date="2017-07-12" dc:format="image/svg+xml" dc:language="en">
				<dc:creator>
					<rdf:Bag>
						<rdf:li>Icon Mafia</rdf:li>
					</rdf:Bag>
				</dc:creator>
			</rdf:Description>
		</rdf:RDF>
    </metadata></svg>
