<?xml version="1.0"?>
<svg xmlns="http://www.w3.org/2000/svg" xmlns:xlink="http://www.w3.org/1999/xlink" version="1.1" id="Capa_1" x="0px" y="0px" viewBox="0 0 464 464" style="enable-background:new 0 0 464 464;" xml:space="preserve" width="512px" height="512px" class="hovered-paths"><g><path style="fill:#00C9A7" d="M232,376.008c17.672,0,32-14.328,32-32v-32c0-17.672-14.328-32-32-32v16c0,8.84-7.16,16-16,16  s-16,7.16-16,16v16C200,361.68,214.328,376.008,232,376.008z" data-original="#00F2A9" class="hovered-path active-path" data-old_color="#00F2A9"/><path style="fill:#322153" d="M8,384.008h128h192h128c4.424,0,8-3.576,8-8s-3.576-8-8-8h-28.416L259.904,179.36l-13.232-23.816  l55.312-62.224c2.936-3.296,2.64-8.36-0.664-11.288c-3.304-2.952-8.36-2.648-11.288,0.664l-37.128,41.768L271,91.888  c2.152-3.856,0.76-8.728-3.112-10.872c-3.848-2.168-8.736-0.752-10.872,3.112L232,129.136L206.992,84.12  c-2.144-3.856-7.024-5.272-10.872-3.112c-3.864,2.152-5.256,7.016-3.112,10.872l18.096,32.576l-37.128-41.768  c-2.936-3.312-7.992-3.616-11.288-0.664c-3.304,2.928-3.6,7.992-0.664,11.288l55.312,62.224l-13.232,23.816L36.416,368.008H8  c-4.424,0-8,3.576-8,8S3.576,384.008,8,384.008z M232,172.048l14.768,16.616l99.64,179.344H330.96  c-7.416-6.088-31.096-23.12-69.224-29.504c6.312-7.072,10.264-16.296,10.264-26.496v-32c0-22.056-17.944-40-40-40  c-4.424,0-8,3.576-8,8v16c0,4.416-3.584,8-8,8c-13.232,0-24,10.768-24,24v16c0,10.2,3.952,19.424,10.264,26.496  c-38.128,6.384-61.808,23.416-69.224,29.504h-15.448l99.64-179.352L232,172.048z M208,312.008v-16c0-4.416,3.584-8,8-8  c13.232,0,24-10.768,24-24v-6.632c9.312,3.304,16,12.2,16,22.632v32c0,13.232-10.768,24-24,24S208,325.24,208,312.008z   M162.64,368.008c15.32-7.808,38.712-16,69.36-16c30.432,0,53.832,8.2,69.216,16H162.64z M406.192,368.008h-41.488L295.56,243.552  L406.192,368.008z M168.44,243.552L99.296,368.008H57.808L168.44,243.552z" data-original="#322153" class="" data-old_color="#322153"/></g> </svg>
