<?xml version="1.0"?>
<svg xmlns="http://www.w3.org/2000/svg" xmlns:xlink="http://www.w3.org/1999/xlink" version="1.1" id="Layer_1" x="0px" y="0px" viewBox="0 0 495.996 495.996" style="enable-background:new 0 0 495.996 495.996;" xml:space="preserve" width="512px" height="512px" class=""><g><path style="fill:#00C9A7" d="M312.23,0.292c-28.608,2.008-55.232,15.4-75.512,35.68l-0.72,0.712l-0.712-0.712  c-20.28-20.28-46.904-33.672-75.512-35.68C92.366-4.444,35.998,49.06,35.998,115.476c0,30.848,12.008,59.848,33.824,81.656  l136.536,136.536l17.32-17.336c11.992-12,30.536-14.464,45.24-6.008l12.736,7.328l120.52-120.52  c21.816-21.808,33.824-50.808,33.824-81.656C435.998,49.06,379.63-4.444,312.23,0.292z" data-original="#FFA64D" class="active-path" data-old_color="#FFA64D"/><g>
	<path style="fill:#333333" d="M403.998,359.996v24h-29.232l-101.008-79.368c-7.104-5.568-15.968-8.632-24.968-8.632h-4.368   c-22.288,0-40.424,18.136-40.424,40.416c0,12.344,5.528,23.848,15.168,31.56l8.84,7.072l-18.36,9.176l-23.288,2.912l-39.96-53.272   c-6.52-8.68-16.888-13.864-27.736-13.864c-19.024,0-34.488,15.408-34.64,34.4l-10.76-9.416c-6.616-5.8-15.096-8.984-23.888-8.984   h-1.096c-20.008,0-36.28,16.28-36.28,36.288c0,9.696,3.776,18.808,10.624,25.656l46.816,46.808   c12.088,12.088,27.232,20.664,43.824,24.808l62.496,15.624c7.472,1.864,15.168,2.816,22.864,2.816H372.79l31.208-6.24v14.24h80   v-136H403.998z M99.998,367.996V354.66c0-10.288,8.376-18.664,18.664-18.664c5.84,0,11.432,2.792,14.936,7.472l34.472,45.96   l-17.68,2.208c-13.128,1.64-26.624-2.472-36.616-11.216l-14.2-12.424H99.998z M371.206,471.996H198.622   c-6.392,0-12.784-0.784-18.992-2.336l-62.496-15.624c-13.768-3.44-26.344-10.56-36.384-20.6l-46.816-46.808   c-3.824-3.832-5.936-8.928-5.936-14.344c0-11.184,9.104-20.288,20.28-20.288h1.096c4.912,0,9.656,1.784,13.36,5.016l40.496,35.44   c13.4,11.728,31.48,17.264,49.144,15.056l61.976-7.744l27.16-13.576c2.8,2.936,4.936,6.44,6.232,10.328   c2.336,7.008,1.808,14.504-1.496,21.104l-1.4,2.792l14.296,7.168l1.408-2.8c5.208-10.432,6.048-22.272,2.368-33.328   c-2.672-8.008-7.56-15.016-14.144-20.288l-19.616-15.688c-5.824-4.648-9.16-11.6-9.16-19.064c0-13.464,10.952-24.416,24.424-24.416   h4.368c5.44,0,10.808,1.856,15.088,5.216l105.352,82.784h34.768v65.44L371.206,471.996z M467.998,479.996h-48v-104h48V479.996z" data-original="#333333" class=""/>
	<rect x="435.998" y="391.996" style="fill:#333333" width="16" height="16" data-original="#333333" class=""/>
	<path style="fill:#333333" d="M89.422,142.076c-3.6-8.376-5.424-17.328-5.424-26.6c0-37.208,30.272-67.48,67.48-67.48v-16   c-46.032,0-83.48,37.448-83.48,83.48c0,11.456,2.256,22.528,6.72,32.912L89.422,142.076z" data-original="#333333" class=""/>
	<path style="fill:#333333" d="M92.446,174.5l11.312-11.312c-3.056-3.056-5.832-6.408-8.232-9.968l-13.248,8.968   C85.246,166.588,88.67,170.732,92.446,174.5z" data-original="#333333" class=""/>
</g></g> </svg>
