<?xml version="1.0"?>
<svg xmlns="http://www.w3.org/2000/svg" xmlns:xlink="http://www.w3.org/1999/xlink" version="1.1" id="Layer_1" x="0px" y="0px" viewBox="0 0 496 496" style="enable-background:new 0 0 496 496;" xml:space="preserve" width="512px" height="512px" class=""><g><g>
	<path style="fill:#333333;" d="M224,391.784c0,14.264-4.176,28.08-12.096,39.936L192,461.576V496h16v-29.576l17.216-25.832   C234.888,426.104,240,409.216,240,391.784V352h-16V391.784z" data-original="#333333" class=""/>
	<rect x="128" y="264" style="fill:#333333;" width="16" height="32" data-original="#333333" class=""/>
	<path style="fill:#333333;" d="M79.216,346.664L67.504,276.4c-1.92-11.52-9.464-20.72-19.504-25.272V192c0-8.824,7.176-16,16-16   s16,7.176,16,16v104h16V192v-16c0-8.824,7.176-16,16-16s16,7.176,16,16h16c0-17.648-14.352-32-32-32   c-13.952,0-25.712,9.024-30.088,21.496C76.8,162.032,70.632,160,64,160c-17.648,0-32,14.352-32,32v56.2   c-17.8,1.048-32,15.72-32,33.784v61.856c0,6.664,1.688,13.288,4.88,19.152L48,442.04V496h16v-58.04l-45.072-82.624   C17.016,351.824,16,347.84,16,343.84v-61.856C16,272.072,24.072,264,33.984,264c8.832,0,16.288,6.32,17.744,15.024l13.056,78.312   l48.92,24.464l14.864,37.168l14.856-5.936L126.288,370.2L79.216,346.664z" data-original="#333333" class=""/>
	<path style="fill:#333333;" d="M272,112.216c0-14.264,4.176-28.08,12.096-39.936L304,42.424V0h-16v37.576l-17.216,25.832   C261.112,77.896,256,94.784,256,112.216V168h16V112.216z" data-original="#333333" class=""/>
	<path style="fill:#333333;" d="M491.12,141.008L448,61.96V0h-16v66.04l45.072,82.624c1.912,3.512,2.928,7.496,2.928,11.496v61.856   c0,9.912-8.072,17.984-17.984,17.984c-8.832,0-16.288-6.32-17.744-15.024l-13.056-78.312l-48.92-24.464l-14.864-37.168   l-14.856,5.936l17.136,42.832l47.08,23.536l11.712,70.264c1.92,11.52,9.464,20.72,19.504,25.272V312c0,8.824-7.176,16-16,16   s-16-7.176-16-16V208h-16v104v16c0,8.824-7.176,16-16,16s-16-7.176-16-16v-16v-48h-16v48c0,8.824-7.176,16-16,16s-16-7.176-16-16   h-16c0,17.648,14.352,32,32,32c6.632,0,12.8-2.032,17.912-5.496C358.288,350.976,370.048,360,384,360s25.712-9.024,30.088-21.496   C419.2,341.968,425.368,344,432,344c17.648,0,32-14.352,32-32v-56.2c17.8-1.048,32-15.72,32-33.784V160.16   C496,153.496,494.312,146.864,491.12,141.008z" data-original="#333333" class=""/>
</g><path style="fill:#00C9A7" d="M248,360c-17.616,0-34.168-6.856-46.624-19.312l-67.152-67.152  C119.888,259.208,112,240.152,112,219.88c0-41.84,34.04-75.88,75.88-75.88c20.264,0,39.328,7.888,53.656,22.224l6.464,6.464  l6.464-6.464C268.792,151.888,287.848,144,308.12,144c41.84,0,75.88,34.04,75.88,75.88c0,20.264-7.888,39.328-22.224,53.656  l-67.152,67.152C282.168,353.144,265.616,360,248,360z" data-original="#FFA64D" class="active-path" data-old_color="#FFA64D"/><g>
	<path style="fill:#333333;" d="M213.072,284.504L168.168,239.6c-5.272-5.272-8.168-12.272-8.168-19.72   c0-15.376,12.504-27.88,27.88-27.88v-16c-24.192,0-43.88,19.688-43.88,43.88c0,11.712,4.56,22.736,12.848,31.032l44.904,44.904   L213.072,284.504z" data-original="#333333" class=""/>
	
		<rect x="216.003" y="298.731" transform="matrix(-0.7071 0.7071 -0.7071 -0.7071 599.3162 365.2969)" style="fill:#333333;" width="16" height="16.08" data-original="#333333" class=""/>
	<rect x="208" y="80" style="fill:#333333;" width="16" height="16" data-original="#333333" class=""/>
	<rect x="208" y="112" style="fill:#333333;" width="16" height="16" data-original="#333333" class=""/>
	<rect x="224" y="96" style="fill:#333333;" width="16" height="16" data-original="#333333" class=""/>
	<rect x="192" y="96" style="fill:#333333;" width="16" height="16" data-original="#333333" class=""/>
	<rect x="272" y="376" style="fill:#333333;" width="16" height="16" data-original="#333333" class=""/>
	<rect x="272" y="408" style="fill:#333333;" width="16" height="16" data-original="#333333" class=""/>
	<rect x="288" y="392" style="fill:#333333;" width="16" height="16" data-original="#333333" class=""/>
	<rect x="256" y="392" style="fill:#333333;" width="16" height="16" data-original="#333333" class=""/>
	<rect x="296" y="192" style="fill:#333333;" width="16" height="16" data-original="#333333" class=""/>
	<rect x="296" y="224" style="fill:#333333;" width="16" height="16" data-original="#333333" class=""/>
	<rect x="312" y="208" style="fill:#333333;" width="16" height="16" data-original="#333333" class=""/>
	<rect x="280" y="208" style="fill:#333333;" width="16" height="16" data-original="#333333" class=""/>
</g></g> </svg>
