<?xml version="1.0"?>
<svg xmlns="http://www.w3.org/2000/svg" xmlns:xlink="http://www.w3.org/1999/xlink" version="1.1" id="Capa_1" x="0px" y="0px" viewBox="0 0 464 464" style="enable-background:new 0 0 464 464;" xml:space="preserve" width="512px" height="512px" class="hovered-paths"><g><path style="fill:#00C9A7" d="M168,120v176l128,64V120c0-8.8-7.2-16-16-16h-96C175.2,104,168,111.2,168,120z" data-original="#00F2A9" class="hovered-path active-path" data-old_color="#00F2A9"/><g>
	<path style="fill:#322153" d="M456,64h-32H280h-8V40c0-22.056-17.944-40-40-40s-40,17.944-40,40v24h-8H40H8c-4.416,0-8,3.576-8,8   s3.584,8,8,8h28.688l29.656,29.656c0.88,0.872,1.952,1.536,3.128,1.928L160,141.76V264c0,3.032,1.712,5.8,4.424,7.16L192,284.944   V384h-24c-3.032,0-5.8,1.712-7.16,4.424l-32,64c-1.24,2.48-1.104,5.424,0.352,7.784S133.224,464,136,464h192   c2.776,0,5.344-1.44,6.808-3.8s1.592-5.304,0.352-7.784l-32-64C301.8,385.712,299.032,384,296,384h-24v-59.056l20.424,10.208   C293.552,335.72,294.776,336,296,336c1.464,0,2.92-0.4,4.2-1.192c2.36-1.464,3.8-4.032,3.8-6.808V141.76l90.528-30.176   c1.176-0.392,2.248-1.056,3.128-1.928L427.312,80H456c4.424,0,8-3.576,8-8S460.424,64,456,64z M208,40c0-13.232,10.768-24,24-24   s24,10.768,24,24v24h-48V40z M76.32,97.008L59.312,80h102.056c-0.24,0.672-0.368,1.4-0.552,2.096   c-0.12,0.472-0.272,0.92-0.368,1.392C160.176,84.96,160,86.456,160,88v36.896L76.32,97.008z M315.056,448H148.944l24-48H200h64   h27.056L315.056,448z M256,384h-48v-91.056l48,24V384z M288,315.056l-20.424-10.208l-64-32L176,259.056V136V88c0-4.416,3.592-8,8-8   h16h64h16c4.416,0,8,3.584,8,8v48V315.056z M387.68,97.008L304,124.896V88c0-1.544-0.176-3.048-0.456-4.512   c-0.088-0.464-0.24-0.896-0.352-1.352c-0.184-0.712-0.312-1.448-0.56-2.136h102.056L387.68,97.008z" data-original="#322153" class="" data-old_color="#322153"/>
	<path style="fill:#322153" d="M200,416c-4.416,0-8,3.576-8,8s3.584,8,8,8h64c4.424,0,8-3.576,8-8s-3.576-8-8-8H200z" data-original="#322153" class="" data-old_color="#322153"/>
	<path style="fill:#322153" d="M200,128c-4.416,0-8,3.576-8,8v64c0,4.424,3.584,8,8,8s8-3.576,8-8v-64   C208,131.576,204.416,128,200,128z" data-original="#322153" class="" data-old_color="#322153"/>
	<path style="fill:#322153" d="M264,96c-4.424,0-8,3.576-8,8v160c0,4.424,3.576,8,8,8s8-3.576,8-8V104   C272,99.576,268.424,96,264,96z" data-original="#322153" class="" data-old_color="#322153"/>
	<path style="fill:#322153" d="M232,192c-4.416,0-8,3.576-8,8v32c0,4.424,3.584,8,8,8c4.416,0,8-3.576,8-8v-32   C240,195.576,236.416,192,232,192z" data-original="#322153" class="" data-old_color="#322153"/>
</g></g> </svg>
