<?xml version="1.0"?>
<svg xmlns="http://www.w3.org/2000/svg" id="Layer_1" data-name="Layer 1" viewBox="0 0 512 512" width="512px" height="512px" class=""><g><title>Cloud to computer</title><path d="M64,314H44a14.157,14.157,0,0,0-14,14.164V412H50V328.164A14.157,14.157,0,0,1,64,314Z" style="fill:#eae8ed" data-original="#eae8ed" class="active-path" data-old_color="#eae8ed"/><path d="M50,438.164V424H30v14.164A13.877,13.877,0,0,0,44,452H64A13.877,13.877,0,0,1,50,438.164Z" style="fill:#eae8ed" data-original="#eae8ed" class="active-path" data-old_color="#eae8ed"/><path d="M328,314H308a14.157,14.157,0,0,0-14,14.164V412h20V328.164A14.157,14.157,0,0,1,328,314Z" style="fill:#eae8ed" data-original="#eae8ed" class="active-path" data-old_color="#eae8ed"/><path d="M314,438.164V424H294v14.164A13.877,13.877,0,0,0,308,452h20A13.877,13.877,0,0,1,314,438.164Z" style="fill:#eae8ed" data-original="#eae8ed" class="active-path" data-old_color="#eae8ed"/><path d="M192,112.341a32.7,32.7,0,0,1,9.513-23.147,32.194,32.194,0,0,1,11.312-7.355,6,6,0,0,0,3.846-5.873c-.034-.756-.056-1.52-.056-2.283a47.922,47.922,0,0,1,32.862-45.43,47.847,47.847,0,0,0-62.862,45.43c0,.763.022,1.527.056,2.283a6,6,0,0,1-3.846,5.873,32.194,32.194,0,0,0-11.312,7.355A32.735,32.735,0,0,0,194.462,145h30A32.667,32.667,0,0,1,192,112.341Z" style="fill:#d6f6f1" data-original="#eae8ed" class="active-path" data-old_color="#eae8ed"/><path d="M118,464v22H92a6,6,0,0,0,0,12h64a6,6,0,0,0,0-12H130V464h74a25.89,25.89,0,0,0,26-25.836v-110A26.169,26.169,0,0,0,204,302H44a26.169,26.169,0,0,0-26,26.164v110A25.89,25.89,0,0,0,44,464ZM44,314H204a14.157,14.157,0,0,1,14,14.164V412H30V328.164A14.157,14.157,0,0,1,44,314ZM30,438.164V424H218v14.164A13.877,13.877,0,0,1,204,452H44A13.877,13.877,0,0,1,30,438.164Z" style="fill:#322153" data-original="#0635C9" class="" data-old_color="#0635C9"/><path d="M468,302H308a26.169,26.169,0,0,0-26,26.164v110A25.89,25.89,0,0,0,308,464h74v22H356a6,6,0,0,0,0,12h64a6,6,0,0,0,0-12H394V464h74a25.89,25.89,0,0,0,26-25.836v-110A26.169,26.169,0,0,0,468,302ZM308,314H468a14.157,14.157,0,0,1,14,14.164V412H294V328.164A14.157,14.157,0,0,1,308,314ZM468,452H308a13.877,13.877,0,0,1-14-13.836V424H482v14.164A13.877,13.877,0,0,1,468,452Z" style="fill:#322153" data-original="#0635C9" class="" data-old_color="#0635C9"/><path d="M197,185.906a6,6,0,0,0,6-6V173.7a6,6,0,0,0-12,0v6.206A6,6,0,0,0,197,185.906Z" style="fill:#322153" data-original="#0635C9" class="" data-old_color="#0635C9"/><path d="M197,210.947a6,6,0,0,0,6-6v-5.691a6,6,0,1,0-12,0v5.691A6,6,0,0,0,197,210.947Z" style="fill:#322153" data-original="#0635C9" class="" data-old_color="#0635C9"/><path d="M193.412,288.2a6,6,0,0,0,8.176,0l31.474-29.293a6,6,0,0,0,.3-8.48,6.306,6.306,0,0,0-8.73-.3L203,270.029V225.175a6,6,0,0,0-12,0v44.854l-21.137-19.9a5.851,5.851,0,0,0-8.355.3,6,6,0,0,0,.367,8.48Z" style="fill:#322153" data-original="#0635C9" class="" data-old_color="#0635C9"/><path d="M314,271.6a6,6,0,0,0-6,6v6.205a6,6,0,0,0,12,0V277.6A6,6,0,0,0,314,271.6Z" style="fill:#322153" data-original="#0635C9" class="" data-old_color="#0635C9"/><path d="M320,252.562a6,6,0,0,0-12,0v5.691a6,6,0,0,0,12,0Z" style="fill:#322153" data-original="#0635C9" class="" data-old_color="#0635C9"/><path d="M286.863,207.386,308,187.481v44.853a6,6,0,1,0,12,0V187.481l21.637,19.905a6.289,6.289,0,0,0,4.212,1.608,6.126,6.126,0,0,0,4.456-1.912,6,6,0,0,0-.274-8.48l-31.459-29.294a5.992,5.992,0,0,0-8.168,0L278.934,198.6a6.007,6.007,0,0,0-.428,8.48A5.853,5.853,0,0,0,286.863,207.386Z" style="fill:#322153" data-original="#0635C9" class="" data-old_color="#0635C9"/><path d="M194.462,157H317.538a44.663,44.663,0,0,0,13.247-87.253,44.539,44.539,0,0,0-52.964-37.3,59.841,59.841,0,0,0-103.191,39.9A44.52,44.52,0,0,0,150,112.342,44.68,44.68,0,0,0,194.462,157ZM171.513,89.194a32.194,32.194,0,0,1,11.312-7.355,6,6,0,0,0,3.846-5.873c-.034-.756-.056-1.52-.056-2.283a47.844,47.844,0,0,1,84.544-30.7,6,6,0,0,0,6.327,1.9,32.46,32.46,0,0,1,41.711,29.8,6,6,0,0,0,4.809,5.647A32.688,32.688,0,0,1,317.538,145H194.462a32.735,32.735,0,0,1-22.949-55.806Z" style="fill:#00C9A7" data-original="#1AE5BE" class="" data-old_color="#1AE5BE"/></g> </svg>
