<?xml version="1.0"?>
<svg xmlns="http://www.w3.org/2000/svg" xmlns:xlink="http://www.w3.org/1999/xlink" version="1.1" id="Capa_1" x="0px" y="0px" viewBox="0 0 464 464" style="enable-background:new 0 0 464 464;" xml:space="preserve" width="512px" height="512px" class=""><g><g>
	<circle style="fill:#00C9A7" cx="232" cy="364" r="32" data-original="#00F2A9" class="active-path" data-old_color="#00F2A9"/>
	<circle style="fill:#00C9A7" cx="136" cy="428" r="32" data-original="#00F2A9" class="active-path" data-old_color="#00F2A9"/>
	<circle style="fill:#00C9A7" cx="328" cy="428" r="32" data-original="#00F2A9" class="active-path" data-old_color="#00F2A9"/>
</g><g>
	<path style="fill:#322153" d="M392,68c-24.216,0-45.688,12.024-58.744,30.416C321.496,44.504,273.392,4,216,4   C152.168,4,99.816,54.104,96.192,117.048C86.016,106.536,71.76,100,56,100c-30.872,0-56,25.128-56,56v32c0,30.872,25.128,56,56,56   h168v48.168C208,295.376,195.376,308,192.168,324H136c-4.424,0-8,3.576-8,8v24.168c-18.584,3.728-32.64,20.168-32.64,39.832   c0,22.408,18.232,40.64,40.64,40.64s40.64-18.232,40.64-40.64c0-19.664-14.056-36.104-32.64-39.832V340h48.168   c3.728,18.584,20.168,32.64,39.832,32.64s36.104-14.056,39.832-32.64H320v16.168c-18.584,3.728-32.64,20.168-32.64,39.832   c0,22.408,18.232,40.64,40.64,40.64s40.64-18.232,40.64-40.64c0-19.664-14.056-36.104-32.64-39.832V332c0-4.424-3.576-8-8-8   h-56.168C268.624,308,256,295.376,240,292.168V244h152c39.704,0,72-32.296,72-72v-32C464,100.296,431.704,68,392,68z M159.36,396   c0,12.88-10.48,23.36-23.36,23.36s-23.36-10.48-23.36-23.36s10.48-23.36,23.36-23.36S159.36,383.12,159.36,396z M351.36,396   c0,12.88-10.48,23.36-23.36,23.36s-23.36-10.48-23.36-23.36s10.48-23.36,23.36-23.36S351.36,383.12,351.36,396z M255.36,332   c0,12.88-10.48,23.36-23.36,23.36s-23.36-10.48-23.36-23.36s10.48-23.36,23.36-23.36C244.88,308.64,255.36,319.12,255.36,332z    M448,172c0,30.872-25.128,56-56,56H240v-88c0-4.424-3.576-8-8-8s-8,3.576-8,8v88H56c-22.056,0-40-17.944-40-40v-32   c0-22.056,17.944-40,40-40s40,17.944,40,40c0,4.424,3.576,8,8,8c4.424,0,8-3.576,8-8v-32c0-57.344,46.656-104,104-104   s104,46.656,104,104v16c0,4.424,3.576,8,8,8s8-3.576,8-8c0-30.872,25.128-56,56-56s56,25.128,56,56V172z" data-original="#322153" class="" data-old_color="#322153"/>
	<path style="fill:#322153" d="M200,36c-56.064,0-71.608,47.016-72,71.872c-0.072,4.416,3.464,8.056,7.872,8.128   c0.04,0,0.088,0,0.128,0c4.36,0,7.928-3.504,8-7.872C144.032,105.832,145.496,52,200,52c4.424,0,8-3.576,8-8S204.424,36,200,36z" data-original="#322153" class="" data-old_color="#322153"/>
	<path style="fill:#322153" d="M392,100c-4.4,0-7.952,3.552-7.976,7.952s3.528,8,7.928,8.048c4.016,0.048,24.048,1.416,24.048,24   c0,4.424,3.576,8,8,8s8-3.576,8-8C432,108.36,405.832,100,392,100z" data-original="#322153" class="" data-old_color="#322153"/>
	<path style="fill:#322153" d="M360,196h-64c-4.424,0-8,3.576-8,8c0,4.424,3.576,8,8,8h64c4.424,0,8-3.576,8-8S364.424,196,360,196   z" data-original="#322153" class="" data-old_color="#322153"/>
</g></g> </svg>
