<?xml version="1.0"?>
<svg xmlns="http://www.w3.org/2000/svg" xmlns:xlink="http://www.w3.org/1999/xlink" version="1.1" id="Layer_1" x="0px" y="0px" viewBox="0 0 496 496" style="enable-background:new 0 0 496 496;" xml:space="preserve" width="512px" height="512px" class=""><g><g>
	<path style="fill:#333333;" d="M208,416C93.312,416,0,322.688,0,208S93.312,0,208,0s208,93.312,208,208   c0,32.112-7.12,62.912-21.168,91.52l-14.36-7.048C393.432,266.072,400,237.648,400,208c0-105.864-86.136-192-192-192   S16,102.136,16,208s86.136,192,192,192c15.6,0,31.104-1.872,46.088-5.568l3.832,15.536C241.68,413.976,224.888,416,208,416z" data-original="#333333"/>
	<path style="fill:#333333;" d="M208,368c-88.224,0-160-71.776-160-160S119.776,48,208,48s160,71.776,160,160   c0,33.44-10.208,65.472-29.528,92.632l-13.04-9.272C342.816,266.92,352,238.096,352,208c0-79.4-64.6-144-144-144S64,128.6,64,208   s64.6,144,144,144c7.616,0,15.272-0.6,22.752-1.784l2.496,15.808C224.952,367.336,216.456,368,208,368z" data-original="#333333"/>
	<path style="fill:#333333;" d="M272,184v-16c0-26.472-21.528-48-48-48h-8V88h-16v32h-8c-26.472,0-48,21.528-48,48s21.528,48,48,48   h32c17.648,0,32,14.352,32,32s-14.352,32-32,32h-32c-17.648,0-32-14.352-32-32v-16h-16v16c0,26.472,21.528,48,48,48h8v32h16v-32h8   c26.472,0,48-21.528,48-48s-21.528-48-48-48h-32c-17.648,0-32-14.352-32-32s14.352-32,32-32h32c17.648,0,32,14.352,32,32v16H272z" data-original="#333333"/>
	<rect x="288" y="200" style="fill:#333333;" width="16" height="16" data-original="#333333"/>
	<rect x="112" y="200" style="fill:#333333;" width="16" height="16" data-original="#333333"/>
</g><path style="fill:#00C9A7" d="M360,496c-17.616,0-34.168-6.856-46.624-19.312l-67.152-67.152  C231.888,395.208,224,376.152,224,355.88c0-41.84,34.04-75.88,75.88-75.88c20.264,0,39.328,7.888,53.656,22.224l6.464,6.464  l6.464-6.464C380.792,287.888,399.848,280,420.12,280c41.84,0,75.88,34.04,75.88,75.88c0,20.264-7.888,39.328-22.224,53.656  l-67.152,67.152C394.168,489.144,377.616,496,360,496z" data-original="#FFA64D" class="active-path" data-old_color="#FFA64D"/><g>
	<path style="fill:#333333;" d="M313.76,431.824l-44.904-44.904C260.56,378.616,256,367.6,256,355.88   c0-24.192,19.688-43.88,43.88-43.88v16c-15.376,0-27.88,12.504-27.88,27.88c0,7.448,2.904,14.448,8.168,19.72l44.904,44.904   L313.76,431.824z" data-original="#333333"/>
	
		<rect x="327.964" y="434.709" transform="matrix(-0.7071 0.7071 -0.7071 -0.7071 886.5966 518.2582)" style="fill:#333333;" width="16" height="16.08" data-original="#333333"/>
</g></g> </svg>
