<?xml version="1.0"?>
<svg xmlns="http://www.w3.org/2000/svg" xmlns:xlink="http://www.w3.org/1999/xlink" version="1.1" id="Capa_1" x="0px" y="0px" viewBox="0 0 464 464" style="enable-background:new 0 0 464 464;" xml:space="preserve" width="512px" height="512px" class="hovered-paths"><g><g>
	<path style="fill:#00C9A7" d="M200,76l-27.28-27.28c-3.04-3.04-7.12-4.72-11.36-4.72H78.64c-4.24,0-8.32,1.68-11.36,4.72L40,76   C22.32,76,8,90.32,8,108h224C232,90.32,217.68,76,200,76z" data-original="#00F2A9" class="hovered-path active-path" data-old_color="#00F2A9"/>
	<path style="fill:#00C9A7" d="M40,460h160c17.68,0,32-14.32,32-32H8C8,445.68,22.32,460,40,460z" data-original="#00F2A9" class="hovered-path active-path" data-old_color="#00F2A9"/>
</g><g>
	<path style="fill:#322153" d="M456,132c-13.232,0-24-10.768-24-24c0-4.424-3.576-8-8-8H240V76   c0-20.792-16.008-37.736-36.312-39.624l-25.312-25.312C173.824,6.504,167.784,4,161.36,4H78.64c-6.424,0-12.464,2.504-17.016,7.064   L36.312,36.376C16.008,38.264,0,55.208,0,76v320c0,22.056,17.944,40,40,40h160c22.056,0,40-17.944,40-40v-24h184   c4.424,0,8-3.576,8-8c0-13.232,10.768-24,24-24c4.424,0,8-3.576,8-8V140C464,135.576,460.424,132,456,132z M16,84h208v24v256v24H16   V84z M72.936,22.376C74.472,20.84,76.496,20,78.64,20h82.72c2.152,0,4.168,0.84,5.704,2.376L180.688,36H59.312L72.936,22.376z    M40,52h160c10.432,0,19.328,6.688,22.632,16H17.368C20.672,58.688,29.568,52,40,52z M200,420H40c-10.432,0-19.328-6.688-22.632-16   h205.264C219.328,413.312,210.432,420,200,420z M448,324.808c-15.648,3.184-28.008,15.544-31.192,31.192H240v-16h24   c4.424,0,8-3.576,8-8s-3.576-8-8-8h-24V148h24c4.424,0,8-3.576,8-8s-3.576-8-8-8h-24v-16h176.808   c3.184,15.648,15.544,28.008,31.192,31.192L448,324.808L448,324.808z" data-original="#322153" class="" data-old_color="#322153"/>
	<path style="fill:#322153" d="M392,132h-32c-4.424,0-8,3.576-8,8s3.576,8,8,8h32c4.424,0,8-3.576,8-8S396.424,132,392,132z" data-original="#322153" class="" data-old_color="#322153"/>
	<path style="fill:#322153" d="M328,132h-32c-4.424,0-8,3.576-8,8s3.576,8,8,8h32c4.424,0,8-3.576,8-8S332.424,132,328,132z" data-original="#322153" class="" data-old_color="#322153"/>
	<path style="fill:#322153" d="M328,324h-32c-4.424,0-8,3.576-8,8s3.576,8,8,8h32c4.424,0,8-3.576,8-8S332.424,324,328,324z" data-original="#322153" class="" data-old_color="#322153"/>
	<path style="fill:#322153" d="M392,324h-32c-4.424,0-8,3.576-8,8s3.576,8,8,8h32c4.424,0,8-3.576,8-8S396.424,324,392,324z" data-original="#322153" class="" data-old_color="#322153"/>
</g></g> </svg>
