<?xml version="1.0"?>
<svg xmlns="http://www.w3.org/2000/svg" id="Layer_1" data-name="Layer 1" viewBox="0 0 512 512" width="512px" height="512px" class=""><g><title>Server Cloud</title><path d="M222.108,373.723a10.452,10.452,0,1,1,10.453-10.452A10.463,10.463,0,0,1,222.108,373.723Z" style="fill:#EAE8ED" data-original="#D4E1F4" class="active-path" data-old_color="#D4E1F4"/><path d="M222.108,217.336a10.452,10.452,0,1,1-10.451,10.452A10.464,10.464,0,0,1,222.108,217.336Z" style="fill:#EAE8ED" data-original="#D4E1F4" class="active-path" data-old_color="#D4E1F4"/><path d="M278.237,217.336a10.452,10.452,0,1,1-10.451,10.452A10.463,10.463,0,0,1,278.237,217.336Z" style="fill:#EAE8ED" data-original="#D4E1F4" class="active-path" data-old_color="#D4E1F4"/><path d="M222.108,81.852A10.452,10.452,0,1,1,211.657,92.3,10.464,10.464,0,0,1,222.108,81.852Z" style="fill:#EAE8ED" data-original="#D4E1F4" class="active-path" data-old_color="#D4E1F4"/><path d="M278.237,81.852A10.452,10.452,0,1,1,267.786,92.3,10.464,10.464,0,0,1,278.237,81.852Z" style="fill:#EAE8ED" data-original="#D4E1F4" class="active-path" data-old_color="#D4E1F4"/><rect x="330" y="380" width="16" height="16" style="fill:#EAE8ED" data-original="#D4E1F4" class="active-path" data-old_color="#D4E1F4"/><path d="M50,140.691V43.917A4.073,4.073,0,0,1,53.883,40h-20A4.073,4.073,0,0,0,30,43.917v96.774c0,2.028,1.854,3.309,3.883,3.309h20C51.854,144,50,142.719,50,140.691Z" style="fill:#EAE8ED" data-original="#D4E1F4" class="active-path" data-old_color="#D4E1F4"/><path d="M50,276.175V179.4a3.638,3.638,0,0,1,3.883-3.4h-20A3.638,3.638,0,0,0,30,179.4v96.775A3.99,3.99,0,0,0,33.883,280h20A3.99,3.99,0,0,1,50,276.175Z" style="fill:#EAE8ED" data-original="#D4E1F4" class="active-path" data-old_color="#D4E1F4"/><path d="M50,411.659V314.884A4.043,4.043,0,0,1,53.883,311h-20A4.043,4.043,0,0,0,30,314.884v96.775c0,2.028,1.854,3.341,3.883,3.341h20C51.854,415,50,413.687,50,411.659Z" style="fill:#EAE8ED" data-original="#D4E1F4" class="active-path" data-old_color="#D4E1F4"/><path d="M277.268,313.835a6.509,6.509,0,0,1-1.45.165h1.374C277.219,313.946,277.241,313.889,277.268,313.835Z" style="fill:#EAE8ED" data-original="#D4E1F4" class="active-path" data-old_color="#D4E1F4"/><path d="M304.615,333.958a33.574,33.574,0,0,1,10.031-24.015,33.944,33.944,0,0,1,11.926-7.755,6,6,0,0,0,3.847-5.874c-.036-.794-.059-1.6-.059-2.4a50.477,50.477,0,0,1,.485-6.9q.045-.264.068-.535a50.441,50.441,0,0,1,39.753-41.873,50.262,50.262,0,0,0-59.753,41.873q-.022.272-.068.535a50.477,50.477,0,0,0-.485,6.9c0,.8.023,1.6.059,2.4a6,6,0,0,1-3.847,5.874,33.944,33.944,0,0,0-11.926,7.755,33.574,33.574,0,0,0-10.031,24.015A34.109,34.109,0,0,0,318.842,368h20A34.109,34.109,0,0,1,304.615,333.958Z" style="fill:#d6f6f1" data-original="#D4E1F4" class="active-path" data-old_color="#D4E1F4"/><path d="M33.883,427H313.064a5.859,5.859,0,0,0,6-5.832,5.586,5.586,0,0,0-.553-2.421,6.011,6.011,0,0,0,4.93,2.658,5.854,5.854,0,0,0,5.426-3.652A15.427,15.427,0,0,0,330,411.659V374.368a6,6,0,1,0-12,0v37.291a3.555,3.555,0,0,1-.184,1.426,5.587,5.587,0,0,0,.131,4.673A6.056,6.056,0,0,0,313.064,415H33.883C31.854,415,30,413.687,30,411.659V314.884A4.043,4.043,0,0,1,33.883,311H67.461a5.561,5.561,0,0,0,5.132,3H275.818a5.561,5.561,0,0,0,5.132-3H290.4a6,6,0,1,0,0-12H282v-7h22.938a6,6,0,0,0,0-12H281.423a6.528,6.528,0,0,0-5.605-4H72.593a6.528,6.528,0,0,0-5.605,4h-33.1A3.99,3.99,0,0,1,30,276.175V179.4a3.638,3.638,0,0,1,3.883-3.4H67.461c1.051,1,2.953,3,5.132,3H275.818c2.179,0,4.081-2,5.132-3h33.577A3.283,3.283,0,0,1,318,179.4v71.6a6,6,0,0,0,12,0V179.4A15.287,15.287,0,0,0,314.527,164H282v-8h32.527A15.21,15.21,0,0,0,330,140.691V43.917A15.728,15.728,0,0,0,314.527,28H33.883A16.078,16.078,0,0,0,18,43.917v96.774C18,149.335,25.238,156,33.883,156H67v8H33.883A15.638,15.638,0,0,0,18,179.4v96.775A16,16,0,0,0,33.883,292H67v7H33.883A16.05,16.05,0,0,0,18,314.884v96.775C18,420.3,25.238,427,33.883,427ZM79,152H270v15H79ZM30,140.691V43.917A4.073,4.073,0,0,1,33.883,40H314.527A3.726,3.726,0,0,1,318,43.917v96.774A3.212,3.212,0,0,1,314.527,144h-33.1a6.525,6.525,0,0,0-5.6-4H72.593a6.528,6.528,0,0,0-5.605,4h-33.1C31.854,144,30,142.719,30,140.691ZM270,302H79V288H270Z" style="fill:#322153" data-original="#0635C9" class="" data-old_color="#0635C9"/><path d="M199.657,363.271a22.452,22.452,0,1,0,22.451-22.451A22.477,22.477,0,0,0,199.657,363.271Zm32.9,0a10.452,10.452,0,1,1-10.453-10.451A10.464,10.464,0,0,1,232.561,363.271Z" style="fill:#322153" data-original="#0635C9" class="" data-old_color="#0635C9"/><path d="M278.237,352.82a10.721,10.721,0,0,1,1.586.118l1.8-11.865a22.711,22.711,0,0,0-3.381-.253,22.452,22.452,0,1,0,22.116,26.337l-11.821-2.067a10.453,10.453,0,1,1-10.295-12.27Z" style="fill:#322153" data-original="#0635C9" class="" data-old_color="#0635C9"/><path d="M48,348.755v29.033a6,6,0,0,0,12,0V348.755a6,6,0,0,0-12,0Z" style="fill:#322153" data-original="#0635C9" class="" data-old_color="#0635C9"/><path d="M73,348.755v29.033a6,6,0,0,0,12,0V348.755a6,6,0,0,0-12,0Z" style="fill:#322153" data-original="#0635C9" class="" data-old_color="#0635C9"/><path d="M99,348.755v29.033a6,6,0,0,0,12,0V348.755a6,6,0,0,0-12,0Z" style="fill:#322153" data-original="#0635C9" class="" data-old_color="#0635C9"/><path d="M124,348.755v29.033a6,6,0,0,0,12,0V348.755a6,6,0,0,0-12,0Z" style="fill:#322153" data-original="#0635C9" class="" data-old_color="#0635C9"/><path d="M150,348.755v29.033a6,6,0,0,0,12,0V348.755a6,6,0,0,0-12,0Z" style="fill:#322153" data-original="#0635C9" class="" data-old_color="#0635C9"/><path d="M199.657,227.788a22.452,22.452,0,1,0,22.451-22.452A22.477,22.477,0,0,0,199.657,227.788Zm32.9,0a10.452,10.452,0,1,1-10.453-10.452A10.464,10.464,0,0,1,232.561,227.788Z" style="fill:#322153" data-original="#0635C9" class="" data-old_color="#0635C9"/><path d="M255.786,227.788a22.452,22.452,0,1,0,22.451-22.452A22.476,22.476,0,0,0,255.786,227.788Zm32.9,0a10.452,10.452,0,1,1-10.452-10.452A10.463,10.463,0,0,1,288.689,227.788Z" style="fill:#322153" data-original="#0635C9" class="" data-old_color="#0635C9"/><path d="M48,213.271V242.3a6,6,0,0,0,12,0V213.271a6,6,0,1,0-12,0Z" style="fill:#322153" data-original="#0635C9" class="" data-old_color="#0635C9"/><path d="M73,213.271V242.3a6,6,0,0,0,12,0V213.271a6,6,0,1,0-12,0Z" style="fill:#322153" data-original="#0635C9" class="" data-old_color="#0635C9"/><path d="M99,213.271V242.3a6,6,0,0,0,12,0V213.271a6,6,0,1,0-12,0Z" style="fill:#322153" data-original="#0635C9" class="" data-old_color="#0635C9"/><path d="M124,213.271V242.3a6,6,0,0,0,12,0V213.271a6,6,0,1,0-12,0Z" style="fill:#322153" data-original="#0635C9" class="" data-old_color="#0635C9"/><path d="M150,213.271V242.3a6,6,0,0,0,12,0V213.271a6,6,0,1,0-12,0Z" style="fill:#322153" data-original="#0635C9" class="" data-old_color="#0635C9"/><path d="M222.108,114.755A22.452,22.452,0,1,0,199.657,92.3,22.478,22.478,0,0,0,222.108,114.755Zm0-32.9A10.452,10.452,0,1,1,211.657,92.3,10.464,10.464,0,0,1,222.108,81.852Z" style="fill:#322153" data-original="#0635C9" class="" data-old_color="#0635C9"/><path d="M278.237,114.755A22.452,22.452,0,1,0,255.786,92.3,22.477,22.477,0,0,0,278.237,114.755Zm0-32.9A10.452,10.452,0,1,1,267.786,92.3,10.464,10.464,0,0,1,278.237,81.852Z" style="fill:#322153" data-original="#0635C9" class="" data-old_color="#0635C9"/><path d="M54,71.788a6,6,0,0,0-6,6V106.82a6,6,0,0,0,12,0V77.788A6,6,0,0,0,54,71.788Z" style="fill:#322153" data-original="#0635C9" class="" data-old_color="#0635C9"/><path d="M79,112.82a6,6,0,0,0,6-6V77.788a6,6,0,0,0-12,0V106.82A6,6,0,0,0,79,112.82Z" style="fill:#322153" data-original="#0635C9" class="" data-old_color="#0635C9"/><path d="M105,112.82a6,6,0,0,0,6-6V77.788a6,6,0,0,0-12,0V106.82A6,6,0,0,0,105,112.82Z" style="fill:#322153" data-original="#0635C9" class="" data-old_color="#0635C9"/><path d="M130,112.82a6,6,0,0,0,6-6V77.788a6,6,0,0,0-12,0V106.82A6,6,0,0,0,130,112.82Z" style="fill:#322153" data-original="#0635C9" class="" data-old_color="#0635C9"/><path d="M156,112.82a6,6,0,0,0,6-6V77.788a6,6,0,0,0-12,0V106.82A6,6,0,0,0,156,112.82Z" style="fill:#322153" data-original="#0635C9" class="" data-old_color="#0635C9"/><path d="M318.842,380H346v16H325.872A5.725,5.725,0,0,0,320,401.8v8.683a23.325,23.325,0,1,0,12,0V408h19.933A6.231,6.231,0,0,0,358,401.8V380h19v57.8a23.451,23.451,0,1,0,12,0V380h19v21.8a6.6,6.6,0,0,0,6.478,6.2H435v10.35A23.607,23.607,0,0,0,417.4,440.939a23.3,23.3,0,0,0,23.259,23.374A23.549,23.549,0,0,0,464.2,440.939,23.249,23.249,0,0,0,447,418.35V401.8c0-3.314-3.148-5.8-6.462-5.8H420V380h27.568A45.929,45.929,0,0,0,493.8,334.05a46.308,46.308,0,0,0-32.621-44.138,46.191,46.191,0,0,0-55.24-38.849,62.321,62.321,0,0,0-107.562,41.623A46,46,0,0,0,318.842,380Zm18.4,53.073A11.374,11.374,0,1,1,325.872,421.7,11.386,11.386,0,0,1,337.245,433.073Zm57.334,27.314a11.374,11.374,0,1,1-11.374-11.374A11.386,11.386,0,0,1,394.579,460.387Zm57.333-19.448a11.374,11.374,0,1,1-11.374-11.374A11.387,11.387,0,0,1,451.912,440.939Zm-157.266-131a33.944,33.944,0,0,1,11.926-7.755,6,6,0,0,0,3.847-5.874c-.036-.794-.059-1.6-.059-2.4a50.315,50.315,0,0,1,88.911-32.283,6,6,0,0,0,6.329,1.9,34.223,34.223,0,0,1,43.978,31.424,6,6,0,0,0,4.809,5.648A34.3,34.3,0,0,1,481.8,334.142,33.93,33.93,0,0,1,447.568,368H318.842a34.109,34.109,0,0,1-34.227-34.042A33.574,33.574,0,0,1,294.646,309.943Z" style="fill:#00C9A7" data-original="#1AE5BE" class="" data-old_color="#1AE5BE"/></g> </svg>
