<?xml version="1.0"?>
<svg xmlns="http://www.w3.org/2000/svg" xmlns:xlink="http://www.w3.org/1999/xlink" version="1.1" id="Capa_1" x="0px" y="0px" viewBox="0 0 464 464" style="enable-background:new 0 0 464 464;" xml:space="preserve" width="512px" height="512px" class="hovered-paths"><g><g>
	<circle style="fill:#00C9A7" cx="392" cy="104" r="32" data-original="#00F2A9" class="hovered-path active-path" data-old_color="#00F2A9"/>
	<circle style="fill:#00C9A7" cx="392" cy="232" r="32" data-original="#00F2A9" class="hovered-path active-path" data-old_color="#00F2A9"/>
	<circle style="fill:#00C9A7" cx="392" cy="360" r="32" data-original="#00F2A9" class="hovered-path active-path" data-old_color="#00F2A9"/>
</g><g>
	<path style="fill:#322153" d="M392,32c-22.4,0-40,17.6-40,40s17.6,40,40,40s40-17.6,40-40S414.4,32,392,32z M392,96   c-13.6,0-24-10.4-24-24s10.4-24,24-24s24,10.4,24,24S405.6,96,392,96z" data-original="#322153" class="" data-old_color="#322153"/>
	<path style="fill:#322153" d="M240,40c0-4.8-3.2-8-8-8H40c-4.8,0-8,3.2-8,8s3.2,8,8,8h192C236.8,48,240,44.8,240,40z" data-original="#322153" class="" data-old_color="#322153"/>
	<circle style="fill:#322153" cx="104" cy="104" r="8" data-original="#322153" class="" data-old_color="#322153"/>
	<circle style="fill:#322153" cx="136" cy="104" r="8" data-original="#322153" class="" data-old_color="#322153"/>
	<circle style="fill:#322153" cx="168" cy="104" r="8" data-original="#322153" class="" data-old_color="#322153"/>
	<circle style="fill:#322153" cx="200" cy="104" r="8" data-original="#322153" class="" data-old_color="#322153"/>
	<circle style="fill:#322153" cx="232" cy="104" r="8" data-original="#322153" class="" data-old_color="#322153"/>
	<path style="fill:#322153" d="M296,64H136c-4.8,0-8,3.2-8,8s3.2,8,8,8h160c4.8,0,8-3.2,8-8S300.8,64,296,64z" data-original="#322153" class="" data-old_color="#322153"/>
	<path style="fill:#322153" d="M392,160c-22.4,0-40,17.6-40,40s17.6,40,40,40s40-17.6,40-40S414.4,160,392,160z M392,224   c-13.6,0-24-10.4-24-24s10.4-24,24-24s24,10.4,24,24S405.6,224,392,224z" data-original="#322153" class="" data-old_color="#322153"/>
	<path style="fill:#322153" d="M296,160H168c-4.8,0-8,3.2-8,8s3.2,8,8,8h128c4.8,0,8-3.2,8-8S300.8,160,296,160z" data-original="#322153" class="" data-old_color="#322153"/>
	<circle style="fill:#322153" cx="136" cy="232" r="8" data-original="#322153" class="" data-old_color="#322153"/>
	<circle style="fill:#322153" cx="168" cy="232" r="8" data-original="#322153" class="" data-old_color="#322153"/>
	<circle style="fill:#322153" cx="200" cy="232" r="8" data-original="#322153" class="" data-old_color="#322153"/>
	<circle style="fill:#322153" cx="232" cy="232" r="8" data-original="#322153" class="" data-old_color="#322153"/>
	<circle style="fill:#322153" cx="264" cy="232" r="8" data-original="#322153" class="" data-old_color="#322153"/>
	<circle style="fill:#322153" cx="296" cy="232" r="8" data-original="#322153" class="" data-old_color="#322153"/>
	<path style="fill:#322153" d="M296,192H40c-4.8,0-8,3.2-8,8s3.2,8,8,8h256c4.8,0,8-3.2,8-8S300.8,192,296,192z" data-original="#322153" class="" data-old_color="#322153"/>
	<path style="fill:#322153" d="M40,400h152v24c0,22.4-20,24-24,24H40c-4.8,0-8,3.2-8,8s3.2,8,8,8h128c13.6,0,40-8,40-40v-24h16v56   c0,4.8,3.2,8,8,8c4.8,0,8-3.2,8-8v-56h16v24c0,4.8,3.2,8,8,8s8-3.2,8-8v-24h152c22.4,0,40-17.6,40-40v-64c0-12.8-6.4-24.8-16-32   c9.6-7.2,16-19.2,16-32v-64c0-12.8-6.4-24.8-16-32c9.6-7.2,16-19.2,16-32V40c0-22.4-17.6-40-40-40H40C17.6,0,0,17.6,0,40v64   c0,12.8,6.4,24.8,16,32c-9.6,7.2-16,19.2-16,32v64c0,12.8,6.4,24.8,16,32c-9.6,7.2-16,19.2-16,32v64C0,382.4,17.6,400,40,400z    M16,104V40c0-13.6,10.4-24,24-24h384c13.6,0,24,10.4,24,24v64c0,13.6-10.4,24-24,24H40C26.4,128,16,117.6,16,104z M16,232v-64   c0-13.6,10.4-24,24-24h384c13.6,0,24,10.4,24,24v64c0,13.6-10.4,24-24,24H40C26.4,256,16,245.6,16,232z M16,296   c0-13.6,10.4-24,24-24h384c13.6,0,24,10.4,24,24v64c0,13.6-10.4,24-24,24H40c-13.6,0-24-10.4-24-24V296z" data-original="#322153" class="" data-old_color="#322153"/>
	<path style="fill:#322153" d="M392,368c22.4,0,40-17.6,40-40s-17.6-40-40-40s-40,17.6-40,40S369.6,368,392,368z M392,304   c13.6,0,24,10.4,24,24s-10.4,24-24,24s-24-10.4-24-24S378.4,304,392,304z" data-original="#322153" class="" data-old_color="#322153"/>
	<path style="fill:#322153" d="M40,304h96c4.8,0,8-3.2,8-8s-3.2-8-8-8H40c-4.8,0-8,3.2-8,8S35.2,304,40,304z" data-original="#322153" class="" data-old_color="#322153"/>
	<circle style="fill:#322153" cx="40" cy="360" r="8" data-original="#322153" class="" data-old_color="#322153"/>
	<circle style="fill:#322153" cx="72" cy="360" r="8" data-original="#322153" class="" data-old_color="#322153"/>
	<circle style="fill:#322153" cx="104" cy="360" r="8" data-original="#322153" class="" data-old_color="#322153"/>
	<circle style="fill:#322153" cx="136" cy="360" r="8" data-original="#322153" class="" data-old_color="#322153"/>
	<circle style="fill:#322153" cx="264" cy="360" r="8" data-original="#322153" class="" data-old_color="#322153"/>
	<circle style="fill:#322153" cx="296" cy="360" r="8" data-original="#322153" class="" data-old_color="#322153"/>
	<path style="fill:#322153" d="M40,336h256c4.8,0,8-3.2,8-8s-3.2-8-8-8H40c-4.8,0-8,3.2-8,8S35.2,336,40,336z" data-original="#322153" class="" data-old_color="#322153"/>
</g></g> </svg>
