<?xml version="1.0"?>
<svg xmlns="http://www.w3.org/2000/svg" xmlns:xlink="http://www.w3.org/1999/xlink" version="1.1" id="Capa_1" x="0px" y="0px" viewBox="0 0 440 440" style="enable-background:new 0 0 440 440;" xml:space="preserve" width="512px" height="512px" class="hovered-paths"><g><circle style="fill:#00C9A7" cx="368" cy="156" r="32" data-original="#00F2A9" class="hovered-path active-path" data-old_color="#00F2A9"/><g>
	<path style="fill:#322153" d="M432,116h-24.808c-1.04-5.096-3.072-9.832-5.856-14.024L418.912,84.4   c3.128-3.128,3.128-8.184,0-11.312s-8.184-3.128-11.312,0l-17.576,17.576c-4.192-2.784-8.928-4.816-14.024-5.856V60   c0-4.424-3.576-8-8-8s-8,3.576-8,8v24.808c-5.096,1.04-9.832,3.072-14.024,5.856L328.4,73.088c-3.128-3.128-8.184-3.128-11.312,0   s-3.128,8.184,0,11.312l17.576,17.576c-2.784,4.192-4.816,8.928-5.856,14.024H304c-4.424,0-8,3.576-8,8s3.576,8,8,8h24.808   c1.04,5.096,3.072,9.832,5.856,14.024L317.088,163.6c-3.128,3.128-3.128,8.184,0,11.312c1.56,1.56,3.608,2.344,5.656,2.344   s4.096-0.784,5.656-2.344l17.576-17.576c4.192,2.784,8.928,4.816,14.024,5.856V188c0,4.424,3.576,8,8,8s8-3.576,8-8v-24.808   c5.096-1.04,9.832-3.072,14.024-5.856l17.576,17.576c1.56,1.56,3.608,2.344,5.656,2.344s4.096-0.784,5.656-2.344   c3.128-3.128,3.128-8.184,0-11.312l-17.576-17.576c2.784-4.192,4.816-8.928,5.856-14.024H432c4.424,0,8-3.576,8-8   S436.424,116,432,116z M368,148c-13.232,0-24-10.768-24-24s10.768-24,24-24s24,10.768,24,24S381.232,148,368,148z" data-original="#322153" class="" data-old_color="#322153"/>
	<path style="fill:#322153" d="M43.72,372H8c-4.424,0-8,3.576-8,8s3.576,8,8,8h384c4.424,0,8-3.576,8-8s-3.576-8-8-8h-51.72   l-50.144-75.224l107.928,26.976c0.648,0.168,1.304,0.248,1.944,0.248c3.584,0,6.84-2.424,7.752-6.064   c1.08-4.28-1.528-8.624-5.824-9.696l-128-32c-0.072-0.016-0.152-0.008-0.232-0.032c-0.152-0.032-0.296-0.032-0.448-0.056   C272.84,276.088,272.424,276,272,276H115.312l-16-16H176c4.424,0,8-3.576,8-8s-3.576-8-8-8H83.312l-27.464-27.464   C54.096,196.096,36.888,180,16,180c-3.232,0-6.16,1.944-7.392,4.936c-1.24,2.992-0.552,6.432,1.736,8.72l63.992,63.992   c0.008,0.008,0.016,0.016,0.024,0.024l27.352,27.352L43.72,372z M62.944,372l53.336-80h151.44l53.336,80H62.944z" data-original="#322153" class="" data-old_color="#322153"/>
</g></g> </svg>
