<?xml version="1.0"?>
<svg xmlns="http://www.w3.org/2000/svg" xmlns:xlink="http://www.w3.org/1999/xlink" version="1.1" id="Capa_1" x="0px" y="0px" viewBox="0 0 448 448" style="enable-background:new 0 0 448 448;" xml:space="preserve" width="512px" height="512px" class="hovered-paths"><g><path style="fill:#00C9A7" d="M104,100v288c0,8.8,7.2,16,16,16h160c8.8,0,16-7.2,16-16V100c0-8.8,7.2-16,16-16H120  C111.2,84,104,91.2,104,100z" data-original="#00F2A9" class="hovered-path active-path" data-old_color="#00F2A9"/><g>
	<path style="fill:#322153" d="M120,380h160c13.232,0,24-10.768,24-24v-40h8c13.232,0,24-10.768,24-24V92h88   c13.232,0,24-10.768,24-24s-10.768-24-24-24H312H120H24C10.768,44,0,54.768,0,68s10.768,24,24,24h72v264   C96,369.232,106.768,380,120,380z M401.472,60c-0.896,2.512-1.472,5.184-1.472,8s0.576,5.488,1.472,8H328h-24v-8   c0-4.416,3.584-8,8-8H401.472z M320,292c0,4.416-3.584,8-8,8h-8V92h16V292z M432,68c0,4.416-3.584,8-8,8s-8-3.584-8-8s3.584-8,8-8   S432,63.584,432,68z M288.808,62.144c-0.112,0.456-0.264,0.888-0.352,1.352C288.176,64.952,288,66.456,288,68v16v224v48   c0,4.416-3.584,8-8,8H120c-4.416,0-8-3.584-8-8V84V68c0-4.416,3.584-8,8-8h169.368C289.128,60.688,288.992,61.424,288.808,62.144z    M24,76c-4.416,0-8-3.584-8-8s3.584-8,8-8h73.368c-0.24,0.688-0.376,1.424-0.56,2.144c-0.112,0.456-0.264,0.888-0.352,1.352   C96.176,64.952,96,66.456,96,68v8H24z" data-original="#322153" class="" data-old_color="#322153"/>
	<path style="fill:#322153" d="M141.656,281.656L168,255.312l26.344,26.344c3.128,3.128,8.184,3.128,11.312,0L232,255.312   l26.344,26.344c1.56,1.56,3.608,2.344,5.656,2.344s4.096-0.784,5.656-2.344c3.128-3.128,3.128-8.184,0-11.312l-32-32   c-3.128-3.128-8.184-3.128-11.312,0L200,264.688l-26.344-26.344c-3.128-3.128-8.184-3.128-11.312,0l-32,32   c-3.128,3.128-3.128,8.184,0,11.312S138.528,284.784,141.656,281.656z" data-original="#322153" class="" data-old_color="#322153"/>
	<path style="fill:#322153" d="M141.656,313.656L168,287.312l26.344,26.344c3.128,3.128,8.184,3.128,11.312,0L232,287.312   l26.344,26.344c1.56,1.56,3.608,2.344,5.656,2.344s4.096-0.784,5.656-2.344c3.128-3.128,3.128-8.184,0-11.312l-32-32   c-3.128-3.128-8.184-3.128-11.312,0L200,296.688l-26.344-26.344c-3.128-3.128-8.184-3.128-11.312,0l-32,32   c-3.128,3.128-3.128,8.184,0,11.312S138.528,316.784,141.656,313.656z" data-original="#322153" class="" data-old_color="#322153"/>
</g></g> </svg>
